<svg width="24" height="24" viewBox="0 0 24 24" fill="none" xmlns="http://www.w3.org/2000/svg">
<path d="M12 23.9951C18.6251 23.9951 24 18.6246 24 11.9988C24 5.37056 18.6276 0 12 0C5.37245 0 0 5.37056 0 11.9964C0 18.6246 5.37245 23.9951 12 23.9951Z" fill="#499557"/>
<path fill-rule="evenodd" clip-rule="evenodd" d="M14.7335 2.94493L14.5781 2.87695L14.7335 2.94979C14.7359 2.94979 14.7335 2.94736 14.7335 2.94493Z" fill="white"/>
<path d="M15.7387 20.5181C15.3526 20.5181 15.0394 20.8313 15.0394 21.2173C15.0394 21.6033 15.3526 21.9165 15.7387 21.9165C16.1247 21.9165 16.4379 21.6033 16.4379 21.2173C16.4379 20.8288 16.1247 20.5181 15.7387 20.5181Z" fill="white"/>
<path d="M13.7963 16.8594H10.116V17.561H13.7963V16.8594Z" fill="white"/>
<path fill-rule="evenodd" clip-rule="evenodd" d="M5.58856 8.47568V16.0095C5.58856 16.194 5.73908 16.3446 5.92358 16.3446H18.079C18.2635 16.3446 18.414 16.194 18.414 16.0095V8.47568C18.414 8.29116 18.2635 8.14062 18.079 8.14062H5.92358C5.73665 8.14063 5.58856 8.28873 5.58856 8.47568ZM8.60616 13.3704C8.00895 13.3704 7.52585 12.8872 7.52585 12.2899C7.52585 11.6927 8.00895 11.2095 8.60616 11.2095C9.20337 11.2095 9.68648 11.6927 9.68648 12.2899C9.68648 12.8848 9.20337 13.3704 8.60616 13.3704ZM15.3964 13.3704C14.7992 13.3704 14.3161 12.8872 14.3161 12.2899C14.3161 11.6927 14.7992 11.2095 15.3964 11.2095C15.9936 11.2095 16.4767 11.6927 16.4767 12.2899C16.4767 12.8848 15.9936 13.3704 15.3964 13.3704Z" fill="white"/>
<path d="M17.7026 18.0854H6.30224C6.11774 18.0854 5.96722 18.236 5.96722 18.4205V19.6806V19.9987H13.3231H13.4833V20.1589V23.9052C15.1268 23.7012 16.666 23.1671 18.0352 22.3707V19.6782V18.4181C18.0352 18.2336 17.8871 18.0854 17.7026 18.0854ZM15.741 22.4339C15.0662 22.4339 14.5224 21.8876 14.5224 21.215C14.5224 20.5401 15.0686 19.9962 15.741 19.9962C16.4159 19.9962 16.9597 20.5425 16.9597 21.215C16.9573 21.89 16.4111 22.4339 15.741 22.4339Z" fill="white"/>
<path d="M5.96484 22.3706C7.73705 23.4049 9.79814 23.9997 11.9976 23.9997C12.3229 23.9997 12.6434 23.9827 12.9614 23.9584V20.5181H5.96484V22.3706ZM6.98204 21.1081H7.45786H11.9466C12.085 21.1081 12.1967 21.2197 12.1967 21.3581C12.1967 21.4965 12.085 21.6082 11.9466 21.6082H6.98204C6.84366 21.6082 6.73199 21.4965 6.73199 21.3581C6.73199 21.2197 6.84366 21.1081 6.98204 21.1081Z" fill="white"/>
<path d="M4.13171 21.057C4.54689 21.4164 4.98391 21.749 5.44522 22.05V19.9839C5.06646 19.9839 4.47891 20.3238 4.13171 21.057Z" fill="white"/>
<path d="M19.8682 21.057C19.5186 20.3262 18.931 19.9863 18.5547 19.9863V22.0501C19.016 21.7466 19.4554 21.4164 19.8682 21.057Z" fill="white"/>
<path fill-rule="evenodd" clip-rule="evenodd" d="M11.8618 7.9104C12.3838 6.04819 13.7457 3.76837 14.559 2.9016L14.576 2.87732C14.5881 2.86033 14.6075 2.85062 14.6245 2.85062C14.7095 2.85304 14.7265 2.90889 14.7314 2.94531L14.7386 2.95016L14.7338 2.95259L14.6828 2.97687C13.5539 4.40206 12.5732 6.15745 12.1313 8.00024C12.8499 8.12649 13.2845 7.54622 13.4981 7.08248C13.503 7.07034 13.4932 7.05092 13.4811 7.04849L13.1145 6.95623C13.0902 6.95138 13.0902 6.91253 13.1145 6.90767L13.5564 6.79113C13.8283 6.73043 14.1487 6.14773 14.2895 5.86852C14.2944 5.85638 14.2895 5.84182 14.2774 5.83453L13.9181 5.6403C13.8962 5.62816 13.9035 5.5966 13.9278 5.59417L14.6148 5.53347C14.6197 5.53347 14.6294 5.52861 14.6318 5.52133L15.0397 4.80752C15.0494 4.79295 15.0445 4.77596 15.0275 4.7711L14.6294 4.606C14.6051 4.59386 14.6075 4.55987 14.6342 4.55745L15.1829 4.50889C15.1878 4.50889 15.1975 4.50403 15.1999 4.49675L15.5908 3.82907C15.5956 3.81693 15.5956 3.80236 15.581 3.79508L15.1829 3.55229C15.1611 3.54015 15.1708 3.50373 15.1975 3.50616L15.6514 3.54257C15.6612 3.54257 15.6733 3.53772 15.6757 3.52558L16.2851 1.66822C16.2899 1.65365 16.2802 1.63666 16.2608 1.64151C15.3553 1.59781 14.644 1.83575 14.3842 1.97171C14.3745 1.97656 14.3721 1.98628 14.3721 1.99599L14.4158 2.45001C14.4206 2.47672 14.3818 2.48886 14.3696 2.46458L14.2045 2.17565C14.1997 2.16594 14.1876 2.16109 14.1778 2.16351C13.7142 2.2582 13.1 3.00843 12.8402 3.38476C12.8353 3.38961 12.8353 3.39933 12.8353 3.40661L13.049 3.94804C13.0587 3.97232 13.032 3.99174 13.0101 3.97474L12.7115 3.7271C12.7018 3.72224 12.6897 3.71738 12.68 3.7271C12.527 3.87034 12.1483 4.606 11.9662 4.97748C11.9614 4.98719 11.9614 4.99447 11.9711 5.00175L12.2867 5.46792C12.3013 5.48977 12.2745 5.51647 12.2527 5.50191L11.8376 5.22512C11.8279 5.22027 11.8133 5.22027 11.806 5.22998C11.6773 5.38051 11.6239 5.95593 11.6118 6.24485C11.6118 6.24971 11.6166 6.25699 11.6215 6.26185L11.9055 6.53377C11.9225 6.54834 11.9104 6.5799 11.8885 6.57748L11.5729 6.55077C11.5608 6.54591 11.5487 6.55562 11.5462 6.56776C11.3763 7.35198 11.6361 7.75987 11.8618 7.9104Z" fill="white"/>
</svg>
