<svg width="18" height="19" viewBox="0 0 18 19" fill="none" xmlns="http://www.w3.org/2000/svg">
<path d="M11.0653 6.95857L11.1795 7.24191L11.4838 7.26953L16.8258 7.75442L12.7578 11.4709L12.5446 11.6656L12.6067 11.9476L13.815 17.433L9.26813 14.5443L9 14.3739L8.73187 14.5443L4.18686 17.4319L5.40216 11.9482L5.46479 11.6656L5.2509 11.4705L1.17725 7.7558L6.51547 7.27907L6.82045 7.25183L6.93481 6.9678L9.00035 1.83782L11.0653 6.95857ZM5.12788 15.2369L4.86663 16.4139L5.88418 15.7673L8.99977 13.7873L12.1245 15.7765L13.1427 16.4247L12.8811 15.2464L12.0438 11.4741L14.8182 8.94081L15.6549 8.17671L14.5265 8.07365L10.8889 7.74145L9.4639 4.19767L8.99921 3.04204L8.53588 4.19822L7.11973 7.73201L3.48253 8.06418L2.35405 8.16724L3.19085 8.93133L5.96518 11.4647L5.12788 15.2369Z" fill="#5F6368" stroke="#5F6368"/>
</svg>
